# xmcd
#
# Track frame offsets:
#	150
#	58717
#	70680
#	90335
#	101257
#	130970
#	160997
#	196950
#	217932
#	255429
#	280222
#	320967
#
# Disc length: 4495 seconds
#
# Revision: 1
# Processed by: cddbd v1.4PL0 Copyright (c) Steve Scherf et al.
# Submitted via: audiograbber 1.80
#
DISCID=a6118d0c
DTITLE=Alquin - Alquin
DYEAR=1900
DGENRE=
TTITLE0=The Dance
TTITLE1=Soft-Eyed Woman
TTITLE2=Oriental Journey
TTITLE3=The Least You Could Do Is Send Me Some Flowers
TTITLE4=New Quinea Sunrise
TTITLE5=Stranger
TTITLE6=Darling Superstar
TTITLE7=L.A. Rendezvous
TTITLE8=FoolIn The Mirror
TTITLE9=High Rockin'
TTITLE10=One More Night
TTITLE11=Wheelchair Groupie (live)
EXTD=
EXTT0=
EXTT1=
EXTT2=
EXTT3=
EXTT4=
EXTT5=
EXTT6=
EXTT7=
EXTT8=
EXTT9=
EXTT10=
EXTT11=
PLAYORDER=
